<svg xmlns="http://www.w3.org/2000/svg" viewBox="0 0 256 256" role="img" aria-label="Narrative Interviewer logo">
  <rect width="256" height="256" fill="#ffffff"/>
  <circle cx="128" cy="128" r="118" fill="#f8fafc" stroke="#0f172a" stroke-width="6"/>
  <g fill="#0f172a">
    <rect x="52" y="64" width="152" height="12" rx="6"/>
    <rect x="52" y="180" width="152" height="12" rx="6"/>
    <rect x="76" y="92" width="18" height="88" rx="9"/>
    <rect x="162" y="92" width="18" height="88" rx="9"/>
    <path d="M128 100c-18 0-34 16-34 34s16 34 34 34 34-16 34-34-16-34-34-34zm0 18c9 0 16 7 16 16s-7 16-16 16-16-7-16-16 7-16 16-16z"/>
  </g>
  <text x="128" y="162" font-family="Fraunces, serif" font-size="28" text-anchor="middle" fill="#0f172a">NI</text>
</svg>
